<?xml version="1.0" encoding="utf-8"?>
<!-- Generator: Adobe Illustrator 22.0.1, SVG Export Plug-In . SVG Version: 6.00 Build 0)  -->
<svg version="1.1" id="logo" xmlns="http://www.w3.org/2000/svg" xmlns:xlink="http://www.w3.org/1999/xlink" x="0px" y="0px"
	 viewBox="0 0 72.8 32" style="enable-background:new 0 0 72.8 32;" xml:space="preserve">
<style type="text/css">
	.st0{fill-rule:evenodd;clip-rule:evenodd;fill:#F37920;}
</style>
<path id="deva" class="st0" d="M12.4,7.2C12.3,7.1,12.1,7.1,12,7c-1.1-0.5-2.2-0.7-3.4-0.7C7.4,6.3,6.3,6.6,5.2,7
	c-1,0.4-1.9,1.1-2.7,1.9c-0.8,0.8-1.4,1.7-1.9,2.8C0.2,12.7,0,13.8,0,15c0,1.2,0.2,2.3,0.7,3.4c0.4,1,1.1,1.9,1.9,2.7
	c0.8,0.8,1.7,1.4,2.8,1.9c1.1,0.4,2.2,0.7,3.4,0.7c1.2,0,2.3-0.2,3.4-0.7c1-0.4,1.9-1,2.7-1.9c0.8-0.8,1.4-1.7,1.9-2.7
	c0.4-0.9,0.6-1.9,0.7-3l0,0v-0.4V0h-4.8v0.5V7.2z M8.6,19.3c-2.4,0-4.4-1.9-4.4-4.4c0-2.4,1.9-4.3,4.3-4.3c2.4,0,4.4,1.9,4.4,4.3
	C13,17.3,11,19.3,8.6,19.3z M50.3,7.1L46,16.8l-4.2-9.7h-5.1L44,23.3h4.1l7.2-16.2H50.3z M31.9,17.8c-1,1.1-2.2,1.7-3.5,1.7
	c-1.9,0-3.5-1.1-4.2-2.8h12c0.8-5.1-2.4-10.3-7.8-10.3c-5.1,0-9.1,4.6-8.6,9.6c0.5,4.4,4.1,7.7,8.6,7.7c3.1,0,5.3-1.6,7.1-3.6
	L31.9,17.8z M28.4,10.4c1.9,0,3.8,1.4,3.8,3.1h-8C24.2,11.9,26.1,10.4,28.4,10.4z M72.8,15c0-4.8-3.9-8.6-8.6-8.6
	c-4.8,0-8.6,3.9-8.6,8.6c0,4.8,3.9,8.6,8.6,8.6c1.6,0,3.5-0.5,4.3-1.7v1.5h4.3L72.8,15L72.8,15z M64.1,19.3c-2.4,0-4.3-1.9-4.3-4.3
	s1.9-4.3,4.3-4.3c2.4,0,4.3,1.9,4.3,4.3S66.5,19.3,64.1,19.3z"/>
</svg>
