<svg width="93" height="32" viewBox="0 0 93 32" fill="none" xmlns="http://www.w3.org/2000/svg">
<path fill-rule="evenodd" clip-rule="evenodd" d="M0 26.8074C6.91006 31.4882 21.7206 31.4882 28.6307 26.8074L26.5638 23.4688C20.2801 27.0501 8.35199 27.0501 2.06685 23.4688L0 26.8074Z" fill="#1D50A9"/>
<path fill-rule="evenodd" clip-rule="evenodd" d="M7.51349 22.5123V7.19142H3.14185V21.1486C4.4476 21.7264 5.92966 22.1815 7.51349 22.5123ZM39.0724 7.99756C38.9348 7.9311 38.7944 7.87042 38.6525 7.81408C37.6993 7.39079 36.6902 7.19286 35.654 7.19286C34.6177 7.19286 33.6086 7.41968 32.6554 7.81408C31.7309 8.20993 30.9182 8.7748 30.2174 9.48125C29.5165 10.1863 28.956 11.0343 28.5647 11.9661C28.172 12.9268 27.9484 13.9439 27.9756 14.9884C27.9756 16.0329 28.172 17.05 28.5647 18.0107C28.9575 18.9136 29.5179 19.7617 30.2174 20.4681C30.9455 21.1746 31.7582 21.7394 32.6841 22.1338C33.6358 22.5297 34.6449 22.7276 35.6826 22.7276C36.7203 22.7276 37.728 22.5297 38.6811 22.1064C39.6056 21.7105 40.4183 21.1746 41.1192 20.4392C41.8201 19.7342 42.3805 18.9136 42.7718 17.9818C43.1201 17.128 43.3366 16.2308 43.3796 15.3077L43.3882 15.3135V14.9595V1.50946H39.0724V1.91542V7.99756ZM35.6826 18.8847C33.5255 18.8847 31.7883 17.1338 31.7883 14.9595C31.7883 12.8127 33.5255 11.0617 35.6554 11.0617C37.814 11.0617 39.5497 12.7853 39.5497 14.9595C39.5483 17.1049 37.8111 18.8847 35.6826 18.8847ZM72.8573 7.93977L69.102 16.6671L65.3754 7.93977H60.826L67.2745 22.4849H70.9324L77.3809 7.93977H72.8573ZM56.44 17.5007C55.5428 18.4889 54.4506 19.0263 53.2738 19.0263C51.5925 19.0263 50.1348 18.0092 49.5472 16.4851H60.2799C61.0367 11.9387 58.0941 7.19286 53.3025 7.19286C48.7072 7.19286 45.1483 11.3723 45.6256 15.8075C46.0456 19.7617 49.3236 22.7276 53.2752 22.7276C56.0487 22.7276 57.9823 21.3161 59.5804 19.451L56.44 17.5007ZM53.301 10.8913C54.9551 10.8913 56.6909 12.1626 56.6909 13.6867H49.5457C49.5457 12.2478 51.2557 10.8913 53.301 10.8913ZM89.137 8.28072C88.8504 8.11458 88.5522 7.96866 88.2426 7.84586C87.3941 7.4688 86.5012 7.27088 85.5824 7.23187C85.4663 7.22609 85.3531 7.2232 85.2441 7.2232C84.2078 7.2232 83.1988 7.45002 82.2456 7.84442C81.3211 8.24026 80.5084 8.80514 79.8075 9.51159C79.1066 10.218 78.5462 11.0646 78.1549 11.9965C77.8482 12.7477 77.6446 13.5336 77.583 14.3397L77.5801 14.386V14.3889L77.5773 14.4351V14.438L77.5744 14.4842V14.4871L77.5701 14.5824V14.5853L77.5687 14.6316V14.6345L77.5672 14.6807V14.6836L77.5658 14.7298V14.7327V14.7789V14.7818V14.828V14.8309V14.9263V14.9292V14.9754V14.9783L77.5672 15.0245V15.0274V15.0289V15.0303V15.0317V15.0346V15.0361V15.0375V15.039V15.0404V15.0419V15.0433V15.052V15.0534V15.0563V15.0577V15.0592V15.0606V15.0621V15.0635V15.0664V15.0679V15.0693V15.0708V15.0722V15.0736V15.0765V15.078V15.0823V15.0838V15.0852V15.0866V15.0895V15.091V15.0924V15.0939V15.0968V15.0982V15.0996V15.1011V15.1025V15.104V15.1054V15.1069V15.1083V15.1098V15.1112V15.1126V15.1141V15.1155V15.117V15.1184V15.1213V15.1228V15.1242V15.1256V15.1271V15.1285V15.13V15.1329V15.1343V15.1358V15.1372C77.5844 16.134 77.7794 17.1049 78.1549 18.0237C78.5476 18.9281 79.1081 19.7747 79.8075 20.4811C80.5357 21.1876 81.3483 21.7524 82.2728 22.1468C83.226 22.5427 84.2336 22.7392 85.2714 22.7392C86.5843 22.7392 88.3516 22.313 89.137 21.1905L89.1356 22.4993H92.9769V15.2932C92.9783 15.2398 92.9769 15.0447 92.9769 14.9913V14.9855L92.9755 14.9422V14.9364L92.974 14.8931V14.8873L92.9726 14.8439V14.8382L92.9712 14.7948V14.789L92.9683 14.7457V14.7399L92.9654 14.6966V14.6908L92.9626 14.6475V14.6417L92.9597 14.5983V14.5926L92.9568 14.5492V14.5434L92.954 14.5001V14.4943L92.9511 14.451V14.4452L92.9468 14.3975L92.9425 14.3542V14.3499L92.9382 14.3065V14.3022L92.9339 14.2588V14.2545L92.9296 14.2112V14.2068L92.9239 14.1635V14.1592L92.9182 14.1158V14.1115L92.9124 14.0638L92.9067 14.0205V14.0161L92.901 13.9728V13.9685L92.8952 13.9251V13.9208L92.8895 13.8774V13.8731L92.8823 13.8283V13.824L92.8751 13.7806V13.7763L92.868 13.733V13.7301L92.8608 13.6853L92.8594 13.6824L92.8522 13.6376V13.6347L92.8436 13.5899V13.5871L92.835 13.5423V13.5394L92.8264 13.4946V13.4917L92.8178 13.4469V13.444L92.8092 13.3992L92.8078 13.3964L92.7992 13.3516V13.3487L92.7891 13.3039V13.301L92.7791 13.2562V13.2533L92.7691 13.2085V13.2057L92.759 13.1609V13.158L92.749 13.1132L92.7476 13.1103L92.7361 13.0641L92.7246 13.0193V13.0178L92.7132 12.9731V12.9716L92.7017 12.9268V12.9254L92.6902 12.8806V12.8792L92.6774 12.8344V12.8329L92.6644 12.7881V12.7867L92.6515 12.7419V12.7405L92.6387 12.6957V12.6942L92.6243 12.6495V12.648L92.61 12.6032V12.6018L92.5957 12.557V12.5555L92.5813 12.5108V12.5093L92.567 12.4645V12.4631L92.5526 12.4183V12.4169L92.5369 12.3721V12.3706L92.5211 12.3258L92.5054 12.2811V12.2796L92.4896 12.2348L92.4495 12.1944L92.4323 12.1496L92.4151 12.1048L92.3979 12.06L92.3792 12.0152L92.3606 11.9704C91.9679 11.0386 91.4074 10.2195 90.708 9.48414L90.685 9.46247L90.6736 9.45091L90.6621 9.4408L90.6392 9.41913L90.6162 9.39746L90.6048 9.3859L90.5761 9.35845L90.5718 9.35412L90.5489 9.33389L90.5374 9.32234L90.5245 9.31078L90.5016 9.28911L90.5001 9.28766L90.4772 9.26744L90.4643 9.25588L90.4543 9.24577L90.4313 9.2241L90.4299 9.22265L90.407 9.20243L90.3941 9.19087L90.384 9.1822L90.3611 9.16198L90.3597 9.16053L90.3382 9.14175L90.3253 9.13019L90.3152 9.12152L90.2909 9.1013L90.2894 9.09985L90.2679 9.08107L90.2536 9.06952L90.2436 9.06085L90.2192 9.04062L90.2178 9.03918L90.1963 9.0204L90.1819 9.00884L90.1719 9.00017L90.1475 8.97994L90.1447 8.9785L90.1232 8.96116L90.1088 8.94961L90.0988 8.94238L90.0744 8.9236L90.0716 8.92071L90.0501 8.90338L90.0257 8.88459L90.0013 8.86581L89.9985 8.86292L89.977 8.84559L89.9612 8.83403L89.9512 8.82681L89.9268 8.80803L89.9239 8.80514L89.9024 8.78925L89.8867 8.77769L89.8781 8.77046L89.8537 8.75168L89.8494 8.74879L89.8279 8.7329L89.8121 8.72134L89.8035 8.71557L89.7792 8.69679L89.7749 8.6939L89.7534 8.678L89.7376 8.66645L89.729 8.66067L89.7032 8.64333L89.6989 8.64044L89.6774 8.626L89.6602 8.61444L89.6516 8.60866L89.6258 8.59132L89.6215 8.58843L89.6 8.57399L89.5742 8.55665L89.5484 8.53931L89.5441 8.53642L89.524 8.52198L89.5054 8.51042L89.4982 8.50609L89.4724 8.48875L89.4667 8.48586L89.4466 8.47286L89.395 8.43963L89.3893 8.4353L89.3692 8.42229L89.3506 8.41074L89.3434 8.4064L89.3176 8.39051L89.2918 8.37462L89.2732 8.36306L89.266 8.35873L89.2402 8.34284L89.2345 8.3385L89.2144 8.32694L89.1944 8.31539L89.1872 8.31105L89.16 8.29516L89.1528 8.29083L89.137 8.28072ZM85.2714 18.9151C83.1687 18.9151 81.4645 17.2508 81.3799 15.1531V15.1502V15.1473V15.1444V15.1415V15.1387V15.1358V15.1329V15.13V15.1271V15.1242V15.1213V15.1184V15.1155V15.1126V15.1098V15.1069V15.104V15.1011L81.3785 15.0736V15.0708V15.0751V15.0722V15.0693V15.0664V15.0635L81.377 15V14.9971V14.9942V14.9913V14.9884C81.377 12.8416 83.1142 11.0906 85.2441 11.0906C87.1648 11.0906 88.7529 12.4559 89.0783 14.2906V14.2935C89.084 14.3253 89.0897 14.3571 89.094 14.3889V14.3917C89.0983 14.4235 89.1026 14.4553 89.1069 14.4871V14.49C89.127 14.6532 89.1385 14.8194 89.1385 14.9884C89.1385 17.1352 87.4013 18.9151 85.2714 18.9151ZM17.7646 7.19142C14.4665 7.19142 10.0992 9.18654 10.0992 14.9306C10.0992 15.9665 10.0949 20.4782 10.0978 22.9111C11.5325 23.0917 13.016 23.1798 14.4981 23.1755C14.4981 21.8406 14.4966 15.2253 14.4981 14.9306C14.5081 13.0121 15.9271 11.485 17.7761 11.485C20.3532 11.485 21.1387 13.5076 21.1387 15.0144V22.5066C22.7139 22.1757 24.1874 21.7235 25.4859 21.1471C25.4859 19.9552 25.4816 15.3207 25.4816 15.0144C25.4831 11.5977 23.6785 7.19142 17.7646 7.19142Z" fill="#F47D35"/>
</svg>
