<svg width="14" height="11" viewBox="0 0 14 11" fill="none" xmlns="http://www.w3.org/2000/svg">
<path d="M12.7969 2.14062C12.8789 2.14062 12.9609 2.11328 13.0156 2.05859C13.0703 2.00391 13.125 1.92188 13.125 1.8125V0.9375C13.125 0.855469 13.0703 0.773438 13.0156 0.71875C12.9609 0.664062 12.8789 0.609375 12.7969 0.609375H1.20312C1.09375 0.609375 1.01172 0.664062 0.957031 0.71875C0.902344 0.773438 0.875 0.855469 0.875 0.9375V1.8125C0.875 1.92188 0.902344 2.00391 0.957031 2.05859C1.01172 2.11328 1.09375 2.14062 1.20312 2.14062H12.7969ZM12.7969 6.51562C12.8789 6.51562 12.9609 6.48828 13.0156 6.43359C13.0703 6.37891 13.125 6.29688 13.125 6.1875V5.3125C13.125 5.23047 13.0703 5.14844 13.0156 5.09375C12.9609 5.03906 12.8789 4.98438 12.7969 4.98438H1.20312C1.09375 4.98438 1.01172 5.03906 0.957031 5.09375C0.902344 5.14844 0.875 5.23047 0.875 5.3125V6.1875C0.875 6.29688 0.902344 6.37891 0.957031 6.43359C1.01172 6.48828 1.09375 6.51562 1.20312 6.51562H12.7969ZM12.7969 10.8906C12.8789 10.8906 12.9609 10.8633 13.0156 10.8086C13.0703 10.7539 13.125 10.6719 13.125 10.5625V9.6875C13.125 9.60547 13.0703 9.52344 13.0156 9.46875C12.9609 9.41406 12.8789 9.35938 12.7969 9.35938H1.20312C1.09375 9.35938 1.01172 9.41406 0.957031 9.46875C0.902344 9.52344 0.875 9.60547 0.875 9.6875V10.5625C0.875 10.6719 0.902344 10.7539 0.957031 10.8086C1.01172 10.8633 1.09375 10.8906 1.20312 10.8906H12.7969Z" fill="#94A0B6"/>
</svg>
