<svg width="22" height="18" viewBox="0 0 22 18" fill="none" xmlns="http://www.w3.org/2000/svg">
<path fill-rule="evenodd" clip-rule="evenodd" d="M0.131836 15.078C5.36519 18.7476 16.5827 18.7476 21.8161 15.078L20.2511 12.465C15.4927 15.2714 6.4598 15.2714 1.70591 12.465L0.131836 15.078Z" fill="#F47D35"/>
<path fill-rule="evenodd" clip-rule="evenodd" d="M5.68801 11.7415V0.178886H2.36719V10.7101C3.43567 11.1677 4.54853 11.5133 5.68801 11.7415ZM13.4865 0.1698C10.9732 0.178886 7.66599 1.6827 7.66599 6.01697V12.0413C8.77512 12.179 9.89189 12.2458 11.0095 12.2412V6.01697C10.9998 5.68184 11.0569 5.34813 11.1773 5.03531C11.2978 4.72249 11.4792 4.43681 11.711 4.19492C11.9428 3.95303 12.2204 3.75978 12.5276 3.62643C12.8348 3.49309 13.1654 3.42231 13.5001 3.41823C15.4599 3.41823 16.0542 4.94476 16.0542 6.08057V11.7369C17.1879 11.5109 18.2948 11.1668 19.3569 10.7101C19.3569 9.8015 19.3569 6.31228 19.3569 6.08057C19.3388 3.50455 17.9687 0.178886 13.4774 0.178886L13.4865 0.1698Z" fill="white"/>
</svg>
